<?xml version="1.0" standalone="no"?>
<!DOCTYPE svg PUBLIC "-//W3C//DTD SVG 20010904//EN"
 "http://www.w3.org/TR/2001/REC-SVG-20010904/DTD/svg10.dtd">
<svg version="1.0" xmlns="http://www.w3.org/2000/svg"
 width="1024.000000pt" height="1024.000000pt" viewBox="0 0 1024.000000 1024.000000"
 preserveAspectRatio="xMidYMid meet">

<g transform="translate(0.000000,1024.000000) scale(0.100000,-0.100000)"
fill="#000000" stroke="none">
<path d="M4993 7880 c-176 -32 -358 -151 -469 -306 -55 -77 -88 -148 -116
-250 -21 -77 -21 -91 -19 -695 l3 -617 -619 1 c-690 2 -696 1 -840 -68 -150
-70 -259 -181 -333 -336 -54 -114 -73 -194 -72 -310 0 -335 249 -643 566 -704
63 -12 189 -15 682 -15 l604 0 3 -142 c1 -79 2 -363 2 -633 0 -484 0 -491 23
-565 63 -204 206 -375 387 -465 105 -52 188 -69 340 -68 115 0 140 3 215 27
118 39 182 78 278 170 100 96 160 189 204 316 l33 95 2 345 c1 190 2 474 2
633 l1 287 609 0 608 0 97 24 c241 62 418 227 492 460 34 108 43 185 34 291
-23 268 -197 511 -430 603 -146 58 -134 57 -800 57 l-615 0 -1 615 c0 602 0
617 -22 694 -42 152 -135 296 -249 387 -150 120 -274 167 -448 174 -55 2 -123
0 -152 -5z m246 -191 c91 -15 190 -70 267 -145 72 -71 116 -150 146 -263 19
-73 20 -100 18 -691 -1 -414 -5 -617 -12 -621 -5 -4 -126 -122 -268 -264
l-259 -258 -198 189 c-109 104 -233 223 -275 265 l-78 77 -2 544 c-4 676 -3
700 17 779 45 175 200 341 358 384 64 17 198 19 286 4z m-673 -1961 c143 -150
336 -336 382 -370 23 -17 42 -36 42 -42 0 -5 -118 -128 -262 -273 l-263 -263
-641 0 c-679 0 -719 2 -811 47 -104 51 -233 207 -274 331 -18 55 -21 81 -17
181 4 104 8 122 35 177 84 172 200 267 353 293 30 5 350 9 711 10 l656 1 89
-92z m2567 77 c92 -19 160 -58 238 -135 103 -102 149 -216 149 -370 0 -47 -5
-105 -11 -129 -28 -122 -130 -258 -236 -313 -145 -76 -94 -71 -825 -73 l-657
-2 -258 259 c-142 142 -258 264 -258 271 0 6 101 109 225 228 124 119 237 231
253 248 l27 31 643 0 c519 0 655 -3 710 -15z m-1598 -1044 l127 -123 8 -613
c8 -644 8 -657 -36 -765 -39 -97 -107 -183 -205 -257 -89 -67 -161 -93 -274
-100 -171 -10 -307 47 -432 180 -71 77 -108 143 -132 239 -18 69 -18 101 -9
563 5 270 6 549 3 620 l-6 131 187 179 c103 99 226 219 272 267 l85 87 142
-142 c79 -79 200 -198 270 -266z"/>
<path d="M5084 7458 c-16 -12 -69 -58 -119 -101 -190 -167 -197 -176 -175
-241 14 -44 44 -66 88 -66 42 0 67 13 114 58 l37 35 31 -27 c39 -32 96 -35
133 -6 14 11 28 20 33 20 4 0 26 -16 50 -35 53 -43 89 -52 138 -31 26 11 41
26 52 52 14 33 14 38 -2 62 -9 15 -45 52 -78 82 -34 30 -100 92 -149 138 -48
45 -96 82 -106 82 -10 0 -31 -10 -47 -22z"/>
<path d="M5074 6820 c-43 -17 -54 -48 -54 -148 0 -88 1 -94 26 -117 39 -37
113 -35 154 3 28 26 30 30 30 117 1 50 1 96 1 103 -2 36 -104 64 -157 42z"/>
<path d="M5081 6284 c-55 -24 -60 -37 -61 -162 0 -120 11 -161 49 -182 45 -24
129 -2 151 39 5 11 10 79 10 150 l0 131 -32 20 c-39 23 -70 25 -117 4z"/>
<path d="M3099 5463 c-82 -80 -149 -151 -149 -157 0 -11 155 -167 272 -274 42
-39 65 -52 87 -52 38 0 95 48 110 93 12 31 11 32 -78 117 -49 47 -91 92 -92
100 -4 39 5 56 56 107 31 30 72 75 92 99 32 40 35 47 25 70 -15 31 -49 44
-118 44 l-55 0 -150 -147z"/>
<path d="M3710 5395 c-16 -19 -19 -170 -4 -185 8 -8 53 -12 125 -12 96 1 115
3 126 18 17 23 18 165 1 182 -19 19 -232 16 -248 -3z"/>
<path d="M4280 5403 c-19 -3 -38 -10 -42 -16 -11 -17 -9 -159 2 -177 8 -12 32
-15 137 -12 164 3 192 20 196 113 1 35 -4 46 -31 70 -31 28 -35 29 -130 27
-53 0 -113 -3 -132 -5z"/>
<path d="M6955 5624 c-5 -1 -27 -5 -47 -9 -46 -7 -68 -28 -68 -63 0 -35 21
-65 103 -152 37 -39 67 -78 67 -87 0 -8 -38 -56 -85 -105 -97 -101 -105 -126
-57 -178 39 -44 95 -51 141 -16 52 39 301 276 301 287 0 5 -35 42 -77 82 -43
39 -114 109 -158 153 -77 78 -98 94 -120 88z"/>
<path d="M5755 5401 c-80 -33 -76 -146 6 -188 33 -17 219 -17 243 0 14 10 16
26 14 102 l-3 90 -120 2 c-66 1 -129 -2 -140 -6z"/>
<path d="M6330 5403 c-35 -7 -40 -18 -40 -100 0 -108 -6 -103 126 -103 103 0
116 2 135 21 19 19 21 30 17 96 -3 49 -10 78 -19 84 -14 9 -173 10 -219 2z"/>
<path d="M5057 4699 c-41 -39 -40 -33 -38 -161 1 -111 12 -132 75 -144 47 -8
82 1 112 31 22 22 24 31 24 129 0 101 -1 107 -27 136 -20 22 -40 33 -69 37
-37 5 -46 2 -77 -28z"/>
<path d="M5075 4166 c-17 -7 -35 -19 -41 -27 -6 -8 -14 -65 -18 -127 -6 -110
-6 -113 18 -137 43 -43 114 -45 166 -5 23 17 25 25 28 128 5 124 -2 147 -53
168 -42 17 -61 17 -100 0z"/>
<path d="M5062 3616 c-21 -10 -42 -59 -42 -100 0 -15 -9 -10 -45 23 -39 36
-51 41 -90 41 -26 0 -55 -5 -66 -10 -26 -14 -52 -68 -45 -94 3 -12 78 -90 166
-174 127 -120 167 -152 188 -152 22 0 55 26 157 127 146 144 195 200 195 225
0 33 -52 79 -97 85 -39 5 -44 3 -96 -46 -29 -28 -57 -48 -60 -44 -4 3 -7 22
-7 40 0 47 -14 69 -51 82 -39 13 -76 12 -107 -3z"/>
<path d="M3440 7441 c-357 -6 -366 -6 -402 -29 -20 -12 -39 -29 -42 -38 -3 -9
-6 -200 -6 -426 l0 -410 39 -39 c33 -34 45 -39 84 -39 39 0 49 5 77 37 l32 37
-4 257 -4 258 85 -79 c47 -43 205 -198 351 -344 236 -237 268 -266 297 -266
49 0 123 73 123 122 0 7 -160 171 -355 365 -195 193 -355 359 -355 369 0 16
18 17 255 12 243 -5 257 -4 281 14 92 73 60 187 -56 200 -19 2 -199 2 -400 -1z"/>
<path d="M6365 7428 c-76 -42 -88 -104 -31 -165 l33 -36 262 2 c169 2 261 -1
261 -8 0 -5 -160 -170 -355 -366 -195 -196 -355 -363 -355 -371 0 -50 74 -124
123 -124 29 0 69 37 381 350 192 192 352 348 355 345 4 -2 3 -39 0 -82 -4 -43
-8 -160 -8 -261 -1 -145 2 -189 14 -212 38 -73 140 -66 191 13 20 31 20 45 18
445 -2 227 -6 422 -9 433 -15 47 -38 49 -462 49 -272 -1 -404 -4 -418 -12z"/>
<path d="M3883 4251 c-56 -45 -499 -492 -592 -598 -77 -88 -96 -93 -88 -25 4
26 7 145 8 264 2 244 -1 257 -68 285 -46 19 -81 5 -128 -50 l-35 -41 0 -266
c0 -147 3 -336 7 -420 6 -146 7 -155 32 -182 l26 -28 411 -4 411 -4 36 29 c22
18 41 46 48 70 11 35 10 43 -7 66 -11 15 -33 36 -48 47 -27 20 -38 21 -288 17
-253 -3 -260 -3 -250 16 6 10 168 174 361 364 227 223 351 352 351 365 0 32
-48 92 -90 114 -22 11 -41 20 -44 20 -2 0 -26 -17 -53 -39z"/>
<path d="M6225 4235 c-81 -81 -95 -60 305 -460 193 -192 353 -354 358 -358 4
-5 -108 -6 -249 -2 l-256 8 -40 -37 c-53 -47 -60 -76 -32 -132 36 -74 25 -73
469 -68 217 3 405 7 417 10 13 2 30 16 39 30 15 22 17 69 15 441 -2 454 -2
446 -61 497 -37 31 -73 33 -116 7 -56 -34 -58 -54 -46 -334 6 -138 9 -254 6
-256 -3 -3 -49 39 -102 94 -53 55 -209 214 -346 353 -288 291 -281 287 -361
207z"/>
</g>
</svg>
